<?xml version="1.0" standalone="no"?>
<!DOCTYPE svg PUBLIC "-//W3C//DTD SVG 20010904//EN"
 "http://www.w3.org/TR/2001/REC-SVG-20010904/DTD/svg10.dtd">
<svg version="1.0" xmlns="http://www.w3.org/2000/svg"
 width="310.000000pt" height="310.000000pt" viewBox="0 0 310.000000 310.000000"
 preserveAspectRatio="xMidYMid meet">
<metadata>
Created by potrace 1.14, written by Peter Selinger 2001-2017
</metadata>
<g transform="translate(0.000000,310.000000) scale(0.100000,-0.100000)"
fill="#000000" stroke="none">
<path d="M1190 2841 c-201 -90 -702 -437 -1017 -704 -136 -115 -136 -109 -3
27 116 119 309 290 509 453 107 86 128 119 112 174 -16 54 -61 82 -116 74 -48
-7 -177 -67 -264 -123 l-64 -42 -18 29 c-34 57 -83 74 -146 50 -15 -5 -63 -45
-105 -87 l-78 -77 0 -1062 c0 -585 2 -1063 5 -1063 18 0 88 45 132 84 l51 46
16 -26 c43 -64 121 -80 198 -41 l46 23 17 -28 c19 -34 54 -58 94 -67 l29 -6
-49 -65 c-54 -72 -69 -126 -50 -183 21 -63 74 -97 151 -97 58 0 103 16 164 61
38 27 47 29 66 19 41 -22 132 -8 191 29 51 32 52 32 73 13 57 -53 133 -57 214
-12 l53 29 32 -19 c34 -21 91 -26 130 -11 13 5 50 30 81 55 55 46 57 46 82 30
50 -33 145 -15 193 37 29 31 265 227 269 224 2 -2 -15 -27 -38 -56 -60 -76
-80 -121 -80 -178 0 -81 63 -132 145 -117 38 8 110 54 339 219 129 94 257 177
272 177 2 0 4 -7 4 -15 0 -53 52 -95 116 -95 45 0 75 21 119 81 l35 49 0 135
c0 74 -4 135 -8 135 -13 0 -237 -77 -261 -90 -47 -25 -31 3 51 87 156 162 179
189 185 227 8 54 -4 85 -43 108 l-35 21 38 31 c80 66 73 15 73 507 l0 441 -22
-5 -23 -6 23 16 c20 14 22 23 22 121 l0 105 -40 -6 c-22 -3 -94 -35 -162 -72
-132 -72 -635 -385 -760 -472 -43 -30 -78 -52 -78 -49 0 9 290 225 392 293
132 86 158 114 158 165 0 30 -7 46 -29 69 -33 33 -64 36 -118 14 -19 -8 -36
-15 -37 -15 -1 0 0 20 2 45 4 39 0 49 -26 75 -42 42 -79 39 -170 -10 -40 -22
-74 -40 -75 -40 -2 0 -1 17 1 38 4 45 -26 87 -68 97 -60 14 -426 -211 -820
-504 -24 -18 -30 -20 -20 -7 17 22 395 306 552 416 75 52 113 85 124 108 30
63 -1 127 -72 152 -24 8 -42 7 -80 -6 -40 -13 -49 -14 -53 -3 -2 8 -17 26 -32
41 -44 44 -95 39 -199 -22 l-85 -49 -3 32 c-4 47 -21 74 -57 92 -46 21 -59 19
-155 -24z m-348 -743 c21 -6 52 -27 68 -45 70 -79 13 -233 -86 -233 -36 0 -94
41 -94 67 0 13 -10 15 -57 10 -71 -6 -151 -36 -223 -82 l-55 -34 45 0 c25 0
83 8 130 19 122 28 155 26 191 -9 34 -34 40 -91 13 -129 -8 -12 -61 -44 -117
-71 -190 -91 -324 -198 -367 -294 -28 -61 -26 -76 17 -94 50 -21 225 -12 343
18 139 34 175 35 204 6 46 -46 46 -109 1 -152 -50 -46 -265 -90 -440 -90 -122
0 -134 2 -193 29 -70 32 -124 85 -142 141 -7 21 -10 67 -8 108 5 93 41 166
127 259 60 65 63 70 45 83 -11 8 -22 15 -26 15 -20 1 -48 71 -48 121 0 150
155 283 405 349 80 22 210 25 267 8z m1766 -24 c25 -16 42 -52 42 -88 0 -22 2
-22 89 -18 100 5 145 -6 193 -46 63 -54 74 -140 33 -269 -31 -100 -88 -185
-195 -297 -205 -214 -425 -305 -607 -251 -62 18 -134 80 -162 138 -47 97 -19
285 69 462 127 257 411 451 538 369z m-1219 -192 c45 -49 51 -50 195 -67 168
-20 221 -53 233 -143 9 -69 -30 -133 -170 -276 -100 -101 -129 -126 -159 -131
-48 -9 -88 11 -112 56 -29 54 -17 79 92 186 l97 97 -74 12 c-194 33 -301 102
-301 193 0 70 42 110 114 111 44 0 53 -4 85 -38z"/>
<path d="M2357 1760 c-31 -33 -68 -80 -82 -104 -38 -65 -82 -193 -90 -261 -6
-53 -4 -63 14 -79 17 -16 32 -18 89 -14 105 8 191 57 318 183 79 78 109 116
137 174 51 103 51 105 -26 98 -35 -3 -89 -16 -121 -27 -90 -34 -137 -18 -169
58 l-14 33 -56 -61z"/>
</g>
</svg>
